<svg xmlns="http://www.w3.org/2000/svg" width="1360" height="1080" viewBox="0 0 680 540" font-family="Arial, Helvetica, sans-serif">
<defs><marker id="arrow" viewBox="0 0 10 10" refX="8" refY="5" markerWidth="6" markerHeight="6" orient="auto-start-reverse"><path d="M2 1L8 5L2 9" fill="none" stroke="#5B6178" stroke-width="1.5" stroke-linecap="round" stroke-linejoin="round"/></marker></defs>
<rect x="0" y="0" width="680" height="540" fill="#FFFFFF"/>
<text x="48" y="30" font-size="15" font-weight="bold" fill="#1E2761">SMIA architecture v3 - Neon + Vercel + GitHub Actions</text>

<g>
<rect x="48" y="48" width="170" height="56" rx="8" fill="#F1EFE8" stroke="#5F5E5A" stroke-width="0.75"/>
<text x="133" y="70" font-size="13" font-weight="bold" fill="#2C2C2A" text-anchor="middle">ScrapeCreators</text>
<text x="133" y="90" font-size="11" fill="#5F5E5A" text-anchor="middle">IG, TikTok, X</text>
<rect x="238" y="48" width="160" height="56" rx="8" fill="#F1EFE8" stroke="#5F5E5A" stroke-width="0.75"/>
<text x="318" y="70" font-size="13" font-weight="bold" fill="#2C2C2A" text-anchor="middle">Apify</text>
<text x="318" y="90" font-size="11" fill="#5F5E5A" text-anchor="middle">LinkedIn company posts</text>
<rect x="470" y="48" width="170" height="56" rx="8" fill="#F1EFE8" stroke="#5F5E5A" stroke-width="0.75"/>
<text x="555" y="70" font-size="13" font-weight="bold" fill="#2C2C2A" text-anchor="middle">Claude API</text>
<text x="555" y="90" font-size="11" fill="#5F5E5A" text-anchor="middle">Haiku, Sonnet</text>
</g>

<rect x="40" y="140" width="600" height="140" rx="16" fill="none" stroke="#888780" stroke-width="0.75" stroke-dasharray="4 4"/>
<text x="56" y="162" font-size="13" font-weight="bold" fill="#444441">Compute plane - GitHub Actions (free tier)</text>

<line x1="133" y1="104" x2="133" y2="181" stroke="#5B6178" stroke-width="1.2" marker-end="url(#arrow)"/>
<path d="M318 104 L318 130 L205 130 L205 181" fill="none" stroke="#5B6178" stroke-width="1.2" marker-end="url(#arrow)"/>
<path d="M505 104 L505 118 L172 118 L172 181" fill="none" stroke="#5B6178" stroke-width="1.2" marker-end="url(#arrow)"/>
<line x1="570" y1="104" x2="570" y2="181" stroke="#5B6178" stroke-width="1.2" marker-end="url(#arrow)"/>

<rect x="48" y="185" width="178" height="56" rx="8" fill="#EEEDFE" stroke="#534AB7" stroke-width="0.75"/>
<text x="137" y="207" font-size="13" font-weight="bold" fill="#26215C" text-anchor="middle">Nightly pipeline</text>
<text x="137" y="227" font-size="11" fill="#534AB7" text-anchor="middle">collect, classify, detect</text>
<rect x="248" y="185" width="196" height="56" rx="8" fill="#FAEEDA" stroke="#BA7517" stroke-width="0.75"/>
<text x="346" y="207" font-size="13" font-weight="bold" fill="#633806" text-anchor="middle">Scoring engine</text>
<text x="346" y="227" font-size="11" fill="#854F0B" text-anchor="middle">deterministic cell scores</text>
<rect x="464" y="185" width="172" height="56" rx="8" fill="#EEEDFE" stroke="#534AB7" stroke-width="0.75"/>
<text x="550" y="207" font-size="13" font-weight="bold" fill="#26215C" text-anchor="middle">LangGraph agent</text>
<text x="550" y="227" font-size="11" fill="#534AB7" text-anchor="middle">digest, playbook</text>

<line x1="226" y1="213" x2="246" y2="213" stroke="#5B6178" stroke-width="1.2" marker-end="url(#arrow)"/>

<line x1="90" y1="241" x2="90" y2="328" stroke="#5B6178" stroke-width="1.2" marker-end="url(#arrow)"/>
<line x1="346" y1="241" x2="346" y2="328" stroke="#5B6178" stroke-width="1.2" marker-end="url(#arrow)"/>
<line x1="510" y1="241" x2="510" y2="328" stroke="#5B6178" stroke-width="1.2" marker-end="url(#arrow)"/>

<rect x="88" y="330" width="504" height="64" rx="12" fill="#E1F5EE" stroke="#0F6E56" stroke-width="0.75"/>
<text x="340" y="355" font-size="13" font-weight="bold" fill="#04342C" text-anchor="middle">Neon Postgres + pgvector - state plane</text>
<text x="340" y="376" font-size="11" fill="#0F6E56" text-anchor="middle">posts, cell scores, taxonomies, agent checkpoints, patterns corpus</text>

<line x1="616" y1="241" x2="616" y2="438" stroke="#993C1D" stroke-width="1.4" marker-end="url(#arrow)"/>
<text x="628" y="300" font-size="10" fill="#993C1D" transform="rotate(90 628 300)">drafts, digests</text>
<path d="M128 438 L128 414 L600 414 L600 243" fill="none" stroke="#993C1D" stroke-width="1.4" marker-end="url(#arrow)"/>
<text x="340" y="408" font-size="10" fill="#993C1D" text-anchor="middle">review decision resumes the agent</text>

<rect x="460" y="440" width="180" height="56" rx="8" fill="#FAECE7" stroke="#993C1D" stroke-width="0.75"/>
<text x="550" y="462" font-size="13" font-weight="bold" fill="#4A1B0C" text-anchor="middle">Slack</text>
<text x="550" y="482" font-size="11" fill="#993C1D" text-anchor="middle">review buttons, delivery</text>
<rect x="240" y="440" width="190" height="56" rx="8" fill="#F1EFE8" stroke="#5F5E5A" stroke-width="0.75"/>
<text x="335" y="462" font-size="13" font-weight="bold" fill="#2C2C2A" text-anchor="middle">Vercel functions</text>
<text x="335" y="482" font-size="11" fill="#5F5E5A" text-anchor="middle">slack endpoints, serving plane</text>
<rect x="48" y="440" width="160" height="56" rx="8" fill="#F1EFE8" stroke="#5F5E5A" stroke-width="0.75"/>
<text x="128" y="462" font-size="13" font-weight="bold" fill="#2C2C2A" text-anchor="middle">Repo dispatch</text>
<text x="128" y="482" font-size="11" fill="#5F5E5A" text-anchor="middle">github event</text>

<line x1="458" y1="468" x2="432" y2="468" stroke="#5B6178" stroke-width="1.2" marker-end="url(#arrow)"/>
<line x1="238" y1="468" x2="210" y2="468" stroke="#5B6178" stroke-width="1.2" marker-end="url(#arrow)"/>
<text x="340" y="524" font-size="10" fill="#888780" text-anchor="middle">Gray = external / infrastructure, purple = compute, amber = deterministic intelligence, teal = state, coral = human review loop</text>
</svg>
